<svg width="16" height="16" viewBox="0 0 16 16" fill="none" xmlns="http://www.w3.org/2000/svg">
<path fill-rule="evenodd" clip-rule="evenodd" d="M12.0582 2.23201C12.0521 2.24785 12.0271 2.25601 11.9845 2.25601C11.9378 2.25601 11.92 2.26265 11.92 2.28001C11.92 2.29441 11.9052 2.30401 11.883 2.30401C11.8438 2.30401 11.776 2.37965 11.776 2.42337C11.776 2.43693 11.7652 2.44801 11.752 2.44801C11.7388 2.44801 11.728 2.45881 11.728 2.47201C11.728 2.48521 11.7172 2.49601 11.704 2.49601C11.6908 2.49601 11.68 2.50605 11.68 2.51829C11.68 2.53057 11.6692 2.54473 11.656 2.54981C11.6428 2.55485 11.632 2.57725 11.632 2.59949C11.632 2.62485 11.623 2.64001 11.608 2.64001C11.5948 2.64001 11.584 2.65081 11.584 2.66401C11.584 2.67721 11.574 2.68801 11.5619 2.68801C11.5497 2.68801 11.5355 2.70061 11.5303 2.71601C11.5174 2.75453 11.4847 2.80333 11.456 2.82713C11.4428 2.83805 11.4374 2.84721 11.444 2.84749C11.4506 2.84777 11.4413 2.86269 11.4234 2.88061C11.4055 2.89853 11.3951 2.92017 11.4004 2.92869C11.4057 2.93725 11.3987 2.94857 11.385 2.95385C11.3712 2.95913 11.36 2.97345 11.36 2.98573C11.36 2.99797 11.3492 3.00801 11.336 3.00801C11.3211 3.00801 11.312 3.02313 11.312 3.04801C11.312 3.07109 11.3037 3.08633 11.2923 3.08401C11.2816 3.08181 11.2703 3.09621 11.2673 3.11601C11.2642 3.13581 11.2515 3.15201 11.2389 3.15201C11.2263 3.15201 11.216 3.16205 11.216 3.17429C11.216 3.18657 11.2052 3.20073 11.192 3.20581C11.1788 3.21085 11.168 3.23325 11.168 3.25549C11.168 3.28085 11.159 3.29601 11.144 3.29601C11.1308 3.29601 11.12 3.30681 11.12 3.32001C11.12 3.33321 11.1092 3.34401 11.096 3.34401C11.08 3.34401 11.072 3.36001 11.072 3.39201C11.072 3.41841 11.0666 3.43821 11.06 3.43601C11.038 3.42869 10.9531 3.53021 10.9339 3.58689C10.9289 3.60169 10.9143 3.61785 10.9014 3.62281C10.8885 3.62773 10.8818 3.63809 10.8866 3.64577C10.8913 3.65345 10.881 3.67261 10.8636 3.68837C10.8462 3.70409 10.832 3.72665 10.832 3.73849C10.832 3.75033 10.8256 3.76001 10.8178 3.76001C10.8002 3.76001 10.7498 3.83541 10.7449 3.86921C10.7429 3.88301 10.7328 3.89705 10.7226 3.90049C10.7123 3.90389 10.704 3.91689 10.704 3.92933C10.704 3.94181 10.6932 3.95201 10.68 3.95201C10.665 3.95201 10.656 3.96717 10.656 3.99253C10.656 4.01477 10.6452 4.03717 10.632 4.04221C10.6188 4.04729 10.608 4.06145 10.608 4.07373C10.608 4.08597 10.5972 4.09601 10.584 4.09601C10.5691 4.09601 10.56 4.11113 10.56 4.13601C10.56 4.16089 10.5509 4.17601 10.536 4.17601C10.5228 4.17601 10.512 4.18605 10.512 4.19829C10.512 4.21057 10.5012 4.22473 10.488 4.22981C10.4748 4.23485 10.464 4.25005 10.464 4.26349C10.464 4.27697 10.4569 4.28801 10.4483 4.28801C10.4397 4.28801 10.4282 4.30549 10.4229 4.32685C10.4175 4.34821 10.4029 4.36957 10.3905 4.37437C10.3781 4.37913 10.368 4.39405 10.368 4.40749C10.368 4.42097 10.3609 4.43201 10.3523 4.43201C10.3437 4.43201 10.3321 4.45001 10.3265 4.47201C10.321 4.49401 10.3065 4.51201 10.2943 4.51201C10.282 4.51201 10.272 4.52281 10.272 4.53601C10.272 4.54921 10.2653 4.56001 10.2573 4.56001C10.2491 4.56001 10.2378 4.58161 10.232 4.60801C10.2262 4.63441 10.2112 4.65601 10.1987 4.65601C10.1862 4.65601 10.176 4.66681 10.176 4.68001C10.176 4.69321 10.1688 4.70401 10.16 4.70401C10.1512 4.70401 10.144 4.71369 10.144 4.72557C10.144 4.73741 10.1297 4.76353 10.1123 4.78361C10.0949 4.80369 10.0845 4.82641 10.0893 4.83409C10.094 4.84173 10.0874 4.84801 10.0747 4.84801C10.0619 4.84801 10.0469 4.86601 10.0414 4.88801C10.0359 4.91001 10.0243 4.92801 10.0157 4.92801C10.0071 4.92801 9.99998 4.93805 9.99998 4.95029C9.99998 4.96257 9.98918 4.97673 9.97598 4.98181C9.96278 4.98685 9.95198 5.00925 9.95198 5.03149C9.95198 5.05685 9.94298 5.07201 9.92798 5.07201C9.91478 5.07201 9.90398 5.08205 9.90398 5.09429C9.90398 5.10657 9.89318 5.12073 9.87998 5.12581C9.86678 5.13085 9.85598 5.15325 9.85598 5.17549C9.85598 5.20085 9.84698 5.21601 9.83198 5.21601C9.81878 5.21601 9.80798 5.22681 9.80798 5.24001C9.80798 5.25321 9.79878 5.26401 9.78758 5.26401C9.77634 5.26401 9.75294 5.29633 9.73558 5.33585C9.71818 5.37537 9.6967 5.40777 9.68778 5.40785C9.67206 5.40801 9.6445 5.45053 9.62282 5.50801C9.61702 5.52341 9.6057 5.53601 9.5977 5.53601C9.58974 5.53601 9.57618 5.55221 9.56762 5.57201C9.54434 5.62581 9.51442 5.67045 9.49198 5.68481C9.48098 5.69185 9.47198 5.70717 9.47198 5.71885C9.47198 5.73053 9.46126 5.74897 9.44814 5.75985C9.43506 5.77073 9.42766 5.78501 9.43174 5.79161C9.43578 5.79817 9.4179 5.82437 9.39198 5.84977C9.36606 5.87521 9.34466 5.91221 9.34442 5.93201C9.34418 5.95313 9.33406 5.96801 9.31998 5.96801C9.30678 5.96801 9.29598 5.97805 9.29598 5.99029C9.29598 6.00257 9.28518 6.01673 9.27198 6.02181C9.25878 6.02685 9.24798 6.04485 9.24798 6.06181C9.24798 6.07873 9.23718 6.09673 9.22398 6.10181C9.21078 6.10685 9.19998 6.12125 9.19998 6.13381C9.19998 6.14633 9.18974 6.16053 9.17722 6.16533C9.1647 6.17013 9.15194 6.19069 9.14886 6.21105C9.14574 6.23137 9.13438 6.24621 9.12362 6.24401C9.11282 6.24181 9.10398 6.25105 9.10398 6.26453C9.10398 6.27797 9.09318 6.29317 9.07998 6.29821C9.06678 6.30329 9.05598 6.32465 9.05598 6.34573C9.05598 6.36909 9.04662 6.38401 9.03198 6.38401C9.01878 6.38401 9.00798 6.39405 9.00798 6.40629C9.00798 6.41857 8.99718 6.43273 8.98398 6.43781C8.97078 6.44285 8.95998 6.46525 8.95998 6.48749C8.95998 6.51285 8.95098 6.52801 8.93598 6.52801C8.92278 6.52801 8.91198 6.53573 8.91198 6.54517C8.91198 6.55457 8.90118 6.57309 8.88798 6.58629C8.87478 6.59949 8.86398 6.62417 8.86398 6.64117C8.86398 6.65813 8.85318 6.67201 8.83998 6.67201C8.82678 6.67201 8.81598 6.68221 8.81598 6.69469C8.81598 6.70713 8.80838 6.71989 8.7991 6.72297C8.78982 6.72605 8.78054 6.74005 8.7785 6.75405C8.77646 6.76805 8.76238 6.79189 8.74722 6.80705C8.73206 6.82221 8.72378 6.84121 8.72878 6.84929C8.73378 6.85741 8.72666 6.86401 8.71294 6.86401C8.6985 6.86401 8.68798 6.87773 8.68798 6.89653C8.68798 6.91437 8.67718 6.93317 8.66398 6.93821C8.65078 6.94329 8.63998 6.95669 8.63998 6.96801C8.63998 6.97933 8.62918 6.99273 8.61598 6.99781C8.60278 7.00285 8.59198 7.02185 8.59198 7.04001C8.59198 7.05817 8.58118 7.07717 8.56798 7.08221C8.55478 7.08729 8.54398 7.10145 8.54398 7.11373C8.54398 7.12597 8.53318 7.13601 8.51998 7.13601C8.5049 7.13601 8.49598 7.15121 8.49598 7.17697C8.49598 7.19949 8.48898 7.21357 8.48046 7.20829C8.4719 7.20301 8.46034 7.21701 8.4547 7.23937C8.4491 7.26173 8.4345 7.28001 8.42226 7.28001C8.40998 7.28001 8.39998 7.28993 8.39998 7.30205C8.39998 7.31417 8.38918 7.33305 8.37598 7.34401C8.36278 7.35497 8.35198 7.37745 8.35198 7.39397C8.35198 7.41049 8.34118 7.42401 8.32798 7.42401C8.31478 7.42401 8.30398 7.43393 8.30398 7.44605C8.30398 7.45817 8.29262 7.47753 8.2787 7.48909C8.2639 7.50137 8.25634 7.52545 8.2605 7.54717C8.26622 7.57705 8.26334 7.58077 8.24578 7.56621C8.23378 7.55625 8.22306 7.55257 8.22198 7.55805C8.2209 7.56353 8.21818 7.57521 8.21598 7.58401C8.21378 7.59281 8.2111 7.61081 8.20998 7.62401C8.20886 7.63721 8.19718 7.64801 8.18398 7.64801C8.17078 7.64801 8.15998 7.65573 8.15998 7.66517C8.15998 7.67457 8.14894 7.69333 8.13542 7.70685C8.12134 7.72093 8.11498 7.74429 8.1205 7.76169C8.12782 7.78469 8.12226 7.79201 8.09758 7.79201C8.07518 7.79201 8.06786 7.79953 8.07418 7.81601C8.08002 7.83121 8.07398 7.84001 8.0577 7.84001C8.03426 7.84001 8.02566 7.86177 8.0277 7.91601C8.0281 7.92701 8.01842 7.93601 8.00622 7.93601C7.99398 7.93601 7.98398 7.94681 7.98398 7.96001C7.98398 7.97321 7.97366 7.98401 7.96106 7.98401C7.9479 7.98401 7.93594 8.00281 7.93306 8.02801C7.93018 8.05277 7.91922 8.07025 7.90798 8.06801C7.89698 8.06581 7.88798 8.07841 7.88798 8.09601C7.88798 8.11361 7.88078 8.12621 7.87194 8.12401C7.85606 8.12005 7.8179 8.17401 7.79838 8.22801C7.79282 8.24341 7.7783 8.25601 7.7661 8.25601C7.75394 8.25601 7.74398 8.27041 7.74398 8.28801C7.74398 8.30561 7.7369 8.32001 7.7283 8.32001C7.71966 8.32001 7.70806 8.33801 7.70254 8.36001C7.69702 8.38201 7.6825 8.40001 7.67026 8.40001C7.65798 8.40001 7.64798 8.40773 7.64798 8.41717C7.64798 8.42657 7.63718 8.44509 7.62398 8.45829C7.61078 8.47149 7.59998 8.49617 7.59998 8.51317C7.59998 8.53013 7.58918 8.54401 7.57598 8.54401C7.56278 8.54401 7.55198 8.55173 7.55198 8.56117C7.55198 8.57057 7.54118 8.58909 7.52798 8.60229C7.51478 8.61549 7.50398 8.64017 7.50398 8.65717C7.50398 8.67413 7.49318 8.68801 7.47998 8.68801C7.46678 8.68801 7.45598 8.69573 7.45598 8.70517C7.45598 8.71457 7.44478 8.73349 7.43106 8.74721C7.41734 8.76093 7.40994 8.78201 7.41454 8.79409C7.41918 8.80613 7.41534 8.81601 7.40606 8.81601C7.38522 8.81601 7.32926 8.88121 7.3285 8.90629C7.32822 8.91637 7.31718 8.92873 7.30398 8.93381C7.29078 8.93885 7.27998 8.95765 7.27998 8.97549C7.27998 8.99373 7.26942 9.00801 7.25598 9.00801C7.24098 9.00801 7.23198 9.02317 7.23198 9.04853C7.23198 9.07077 7.22118 9.09317 7.20798 9.09821C7.19478 9.10329 7.18398 9.11745 7.18398 9.12973C7.18398 9.14197 7.17318 9.15201 7.15998 9.15201C7.14498 9.15201 7.13598 9.16717 7.13598 9.19253C7.13598 9.21477 7.12518 9.23717 7.11198 9.24221C7.09878 9.24729 7.08798 9.26145 7.08798 9.27373C7.08798 9.28597 7.07718 9.29601 7.06398 9.29601C7.05078 9.29601 7.03998 9.30681 7.03998 9.32001C7.03998 9.33321 7.0329 9.34401 7.0243 9.34401C7.01566 9.34401 7.00422 9.36149 6.99886 9.38285C6.99346 9.40421 6.97894 9.42557 6.96654 9.43037C6.95414 9.43513 6.94398 9.44925 6.94398 9.46181C6.94398 9.47433 6.93274 9.48889 6.91898 9.49417C6.90522 9.49945 6.8981 9.51049 6.90318 9.51869C6.90822 9.52689 6.89042 9.55753 6.86358 9.58681C6.83674 9.61605 6.81082 9.65569 6.80594 9.67485C6.80106 9.69401 6.7865 9.71377 6.77354 9.71873C6.76054 9.72373 6.75442 9.73505 6.7599 9.74389C6.76538 9.75277 6.75866 9.76001 6.74494 9.76001C6.72182 9.76001 6.71246 9.78725 6.71878 9.83601C6.72022 9.84701 6.71026 9.85601 6.6967 9.85601C6.6831 9.85601 6.67198 9.86681 6.67198 9.88001C6.67198 9.89321 6.66118 9.90401 6.64798 9.90401C6.63198 9.90401 6.62398 9.92001 6.62398 9.95201C6.62398 9.98401 6.61598 10 6.59998 10C6.58678 10 6.57598 10.0108 6.57598 10.024C6.57598 10.0372 6.56602 10.048 6.55386 10.048C6.54166 10.048 6.52714 10.0606 6.52158 10.076C6.47966 10.192 6.49338 10.1995 6.18802 9.89577C6.03334 9.74189 5.90254 9.61601 5.89738 9.61601C5.88086 9.61601 5.82398 9.55269 5.82398 9.53429C5.82398 9.52457 5.81318 9.52073 5.79998 9.52581C5.78366 9.53205 5.77598 9.52493 5.77598 9.50349C5.77598 9.48617 5.76594 9.47201 5.7537 9.47201C5.74142 9.47201 5.7271 9.46077 5.72182 9.44701C5.71654 9.43325 5.70494 9.42645 5.6961 9.43193C5.68722 9.43741 5.67998 9.43229 5.67998 9.42053C5.67998 9.39681 5.62462 9.34401 5.59978 9.34401C5.5911 9.34401 5.58398 9.33321 5.58398 9.32001C5.58398 9.30681 5.57318 9.29601 5.55998 9.29601C5.54678 9.29601 5.53598 9.28521 5.53598 9.27201C5.53598 9.25881 5.52518 9.24801 5.51198 9.24801C5.49878 9.24801 5.48798 9.23721 5.48798 9.22401C5.48798 9.21081 5.47718 9.20001 5.46398 9.20001C5.45078 9.20001 5.43998 9.18921 5.43998 9.17601C5.43998 9.16281 5.42918 9.15201 5.41598 9.15201C5.40278 9.15201 5.39198 9.14121 5.39198 9.12801C5.39198 9.11481 5.38118 9.10401 5.36798 9.10401C5.35478 9.10401 5.34398 9.09321 5.34398 9.08001C5.34398 9.06681 5.33318 9.05601 5.31998 9.05601C5.30678 9.05601 5.29778 9.05013 5.29998 9.04293C5.30522 9.02585 5.05414 8.77477 5.03706 8.78001C5.02986 8.78221 5.02398 8.77481 5.02398 8.76357C5.02398 8.74061 4.96814 8.68801 4.94378 8.68801C4.9351 8.68801 4.92798 8.67721 4.92798 8.66401C4.92798 8.65081 4.91718 8.64001 4.90398 8.64001C4.89078 8.64001 4.87998 8.62921 4.87998 8.61601C4.87998 8.60281 4.86918 8.59201 4.85598 8.59201C4.84278 8.59201 4.83198 8.58121 4.83198 8.56801C4.83198 8.55481 4.82118 8.54401 4.80798 8.54401C4.79478 8.54401 4.78398 8.53321 4.78398 8.52001C4.78398 8.50681 4.77318 8.49601 4.75998 8.49601C4.74678 8.49601 4.73598 8.48521 4.73598 8.47201C4.73598 8.45881 4.72518 8.44801 4.71198 8.44801C4.69878 8.44801 4.68798 8.44097 4.68798 8.43233C4.68798 8.41117 4.35778 8.08001 4.33666 8.08001C4.3275 8.08001 4.31998 8.06921 4.31998 8.05601C4.31998 8.04281 4.31098 8.03169 4.29998 8.03133C4.28898 8.03097 4.2623 8.00937 4.24074 7.98333C4.21914 7.95729 4.1929 7.93601 4.18246 7.93601C4.17198 7.93601 4.15926 7.92521 4.15418 7.91201C4.14914 7.89881 4.13034 7.88801 4.1125 7.88801C4.09426 7.88801 4.07998 7.87745 4.07998 7.86401C4.07998 7.85081 4.06918 7.84001 4.05598 7.84001C4.04278 7.84001 4.03198 7.83245 4.03198 7.82321C4.03198 7.78737 3.9245 7.69601 3.88238 7.69601C3.85534 7.69601 3.83998 7.68729 3.83998 7.67201C3.83998 7.65169 3.80174 7.64801 3.59198 7.64801C3.38222 7.64801 3.34398 7.65169 3.34398 7.67201C3.34398 7.68801 3.32798 7.69601 3.29598 7.69601C3.26398 7.69601 3.24798 7.70401 3.24798 7.72001C3.24798 7.73321 3.23794 7.74401 3.2257 7.74401C3.21342 7.74401 3.19926 7.75481 3.19418 7.76801C3.18914 7.78121 3.17014 7.79201 3.15198 7.79201C3.13382 7.79201 3.11482 7.80281 3.10978 7.81601C3.1047 7.82921 3.09054 7.84001 3.07826 7.84001C3.06602 7.84001 3.05598 7.85081 3.05598 7.86401C3.05598 7.87721 3.04518 7.88801 3.03198 7.88801C3.01878 7.88801 3.00798 7.89881 3.00798 7.91201C3.00798 7.92521 2.99718 7.93601 2.98398 7.93601C2.97078 7.93601 2.95998 7.94681 2.95998 7.96001C2.95998 7.97321 2.94918 7.98401 2.93598 7.98401C2.92278 7.98401 2.91198 7.99481 2.91198 8.00801C2.91198 8.02121 2.90074 8.03201 2.88702 8.03201C2.8733 8.03201 2.86622 8.03869 2.87126 8.04685C2.8763 8.05501 2.86594 8.06629 2.84822 8.07193C2.8305 8.07757 2.81598 8.09249 2.81598 8.10509C2.81598 8.11769 2.81034 8.12621 2.80346 8.12401C2.78774 8.11897 2.68798 8.21965 2.68798 8.24057C2.68798 8.24905 2.67718 8.25601 2.66398 8.25601C2.65078 8.25601 2.63998 8.26681 2.63998 8.28001C2.63998 8.29321 2.62918 8.30401 2.61598 8.30401C2.60278 8.30401 2.59198 8.31481 2.59198 8.32801C2.59198 8.34121 2.58118 8.35201 2.56798 8.35201C2.55478 8.35201 2.54398 8.36281 2.54398 8.37601C2.54398 8.38921 2.53318 8.40001 2.51998 8.40001C2.50678 8.40001 2.49598 8.40721 2.49598 8.41601C2.49598 8.43677 2.43674 8.49601 2.41598 8.49601C2.40718 8.49601 2.39998 8.50681 2.39998 8.52001C2.39998 8.53321 2.38918 8.54401 2.37598 8.54401C2.36278 8.54401 2.35198 8.55481 2.35198 8.56801C2.35198 8.58121 2.34118 8.59201 2.32798 8.59201C2.31478 8.59201 2.30398 8.60281 2.30398 8.61601C2.30398 8.62921 2.29318 8.64001 2.27998 8.64001C2.26678 8.64001 2.25598 8.65005 2.25598 8.66229C2.25598 8.67457 2.24474 8.68889 2.23098 8.69417C2.21722 8.69945 2.21042 8.71105 2.2159 8.71989C2.22138 8.72877 2.21542 8.73601 2.20262 8.73601C2.18046 8.73601 2.1521 8.77869 2.15742 8.80401C2.15882 8.81061 2.15098 8.81421 2.13998 8.81201C2.12898 8.80981 2.11998 8.81881 2.11998 8.83201C2.11998 8.84521 2.11046 8.85989 2.09878 8.86465C2.08714 8.86937 2.07706 8.88017 2.07638 8.88865C2.0757 8.89709 2.06402 8.91217 2.05038 8.92213C2.0359 8.93273 2.02558 8.96433 2.02558 8.99813C2.02558 9.02997 2.02058 9.05601 2.0145 9.05601C2.00842 9.05601 2.00238 9.13881 2.00106 9.24001C1.99978 9.34121 2.00454 9.42401 2.01162 9.42401C2.0187 9.42401 2.0253 9.45381 2.02626 9.49025C2.02738 9.53377 2.03702 9.56157 2.05434 9.57125C2.06882 9.57933 2.07646 9.59273 2.07138 9.60101C2.06626 9.60925 2.0715 9.61625 2.08302 9.61653C2.09454 9.61681 2.12378 9.64961 2.14794 9.68949C2.17514 9.73429 2.19898 9.75757 2.21042 9.75049C2.22206 9.74329 2.22458 9.74609 2.21722 9.75801C2.20562 9.77681 2.45202 10.032 2.48174 10.032C2.48958 10.032 2.49598 10.0428 2.49598 10.056C2.49598 10.0692 2.50678 10.08 2.51998 10.08C2.53318 10.08 2.54398 10.0908 2.54398 10.104C2.54398 10.1172 2.55478 10.128 2.56798 10.128C2.58118 10.128 2.59198 10.1388 2.59198 10.152C2.59198 10.1652 2.60278 10.176 2.61598 10.176C2.62918 10.176 2.63998 10.1868 2.63998 10.2C2.63998 10.2132 2.65078 10.224 2.66398 10.224C2.67718 10.224 2.68798 10.2348 2.68798 10.248C2.68798 10.2612 2.69922 10.272 2.71294 10.272C2.72666 10.272 2.73366 10.2788 2.72846 10.2872C2.7233 10.2956 2.7339 10.3103 2.75198 10.32C2.77006 10.3297 2.78066 10.3444 2.7755 10.3528C2.7703 10.3612 2.7773 10.368 2.79102 10.368C2.80474 10.368 2.81598 10.3788 2.81598 10.392C2.81598 10.4052 2.82678 10.416 2.83998 10.416C2.85318 10.416 2.86398 10.4268 2.86398 10.44C2.86398 10.4532 2.87478 10.464 2.88798 10.464C2.90118 10.464 2.91198 10.4727 2.91198 10.4834C2.91198 10.5023 3.01866 10.6117 3.8217 11.416C4.84826 12.4442 5.16318 12.752 5.18854 12.752C5.20362 12.752 5.21598 12.7628 5.21598 12.776C5.21598 12.7892 5.22678 12.8 5.23998 12.8C5.25318 12.8 5.26398 12.8108 5.26398 12.824C5.26398 12.8372 5.27478 12.848 5.28798 12.848C5.30118 12.848 5.31198 12.8588 5.31198 12.872C5.31198 12.8852 5.32278 12.896 5.33598 12.896C5.34918 12.896 5.35998 12.9068 5.35998 12.92C5.35998 12.9332 5.37078 12.944 5.38398 12.944C5.39718 12.944 5.40618 12.9497 5.40398 12.9567C5.3989 12.9729 5.7869 13.36 5.80818 13.36C5.81686 13.36 5.82398 13.3708 5.82398 13.384C5.82398 13.3972 5.83478 13.408 5.84798 13.408C5.86118 13.408 5.87198 13.4188 5.87198 13.432C5.87198 13.4452 5.87874 13.456 5.88698 13.456C5.89526 13.456 5.92566 13.4776 5.95454 13.504C5.98346 13.5304 6.02034 13.552 6.0365 13.552C6.05322 13.552 6.06134 13.5594 6.0553 13.5691C6.0495 13.5785 6.05982 13.5901 6.07818 13.5949C6.09658 13.5997 6.10738 13.6105 6.10218 13.6189C6.09702 13.6273 6.10738 13.638 6.12526 13.6426C6.14314 13.6473 6.16162 13.6612 6.16638 13.6736C6.1711 13.6859 6.18874 13.696 6.2055 13.696C6.2223 13.696 6.24502 13.7068 6.25598 13.72C6.26694 13.7332 6.30022 13.744 6.32994 13.744C6.3673 13.744 6.38398 13.7514 6.38398 13.768C6.38398 13.7886 6.43294 13.792 6.7285 13.792C7.01994 13.792 7.07442 13.7883 7.08218 13.768C7.08726 13.7548 7.10886 13.744 7.13018 13.744C7.15154 13.744 7.17314 13.7332 7.17818 13.72C7.18326 13.7068 7.20462 13.696 7.2257 13.696C7.24906 13.696 7.26398 13.6866 7.26398 13.672C7.26398 13.6588 7.27678 13.648 7.29242 13.648C7.30806 13.648 7.3445 13.6264 7.37342 13.6C7.4023 13.5736 7.4327 13.552 7.44098 13.552C7.44922 13.552 7.45598 13.542 7.45598 13.5297C7.45598 13.5174 7.46678 13.5033 7.47998 13.4982C7.49318 13.4932 7.50398 13.4708 7.50398 13.4485C7.50398 13.4232 7.51298 13.408 7.52798 13.408C7.54118 13.408 7.55198 13.398 7.55198 13.3857C7.55198 13.3734 7.56278 13.3593 7.57598 13.3542C7.58918 13.3492 7.59998 13.3337 7.59998 13.32C7.59998 13.3062 7.61978 13.2749 7.64398 13.2504C7.68894 13.2048 7.7197 13.1627 7.7391 13.12C7.7451 13.1068 7.76122 13.0876 7.77498 13.0773C7.7887 13.067 7.79458 13.0533 7.78806 13.0468C7.78154 13.0402 7.79054 13.0248 7.8081 13.0125C7.82562 13.0002 7.83998 12.9798 7.83998 12.9671C7.83998 12.9544 7.84734 12.944 7.85638 12.944C7.86538 12.944 7.87978 12.9278 7.88834 12.908C7.90862 12.8611 7.93554 12.821 7.97998 12.7714C7.99978 12.7494 8.01598 12.7188 8.01598 12.7034C8.01598 12.688 8.02678 12.6713 8.03998 12.6662C8.05318 12.6612 8.06398 12.646 8.06398 12.6325C8.06398 12.619 8.07478 12.608 8.08798 12.608C8.1029 12.608 8.11198 12.5929 8.11198 12.568C8.11198 12.5431 8.12106 12.528 8.13598 12.528C8.14918 12.528 8.15998 12.518 8.15998 12.5057C8.15998 12.4934 8.17078 12.4793 8.18398 12.4742C8.19718 12.4692 8.20798 12.4468 8.20798 12.4245C8.20798 12.3992 8.21698 12.384 8.23198 12.384C8.24518 12.384 8.25598 12.3732 8.25598 12.36C8.25598 12.3468 8.26678 12.336 8.27998 12.336C8.2933 12.336 8.30398 12.3218 8.30398 12.304C8.30398 12.2864 8.31106 12.272 8.31966 12.272C8.3283 12.272 8.3399 12.254 8.34542 12.232C8.35094 12.21 8.36386 12.192 8.37414 12.192C8.38442 12.192 8.40702 12.1597 8.42438 12.1202C8.44178 12.0806 8.46498 12.0482 8.47598 12.0482C8.48698 12.0481 8.49598 12.0372 8.49598 12.024C8.49598 12.0108 8.50306 12 8.51166 12C8.5203 12 8.5319 11.982 8.53742 11.96C8.54294 11.938 8.5541 11.92 8.56222 11.92C8.57034 11.92 8.58174 11.9074 8.58758 11.892C8.59342 11.8766 8.60802 11.8541 8.62002 11.8419C8.63202 11.8298 8.63802 11.81 8.63342 11.7979C8.62862 11.7855 8.63514 11.776 8.6485 11.776C8.66142 11.776 8.67198 11.766 8.67198 11.7537C8.67198 11.7414 8.68278 11.7273 8.69598 11.7222C8.70918 11.7172 8.71998 11.6948 8.71998 11.6725C8.71998 11.6472 8.72898 11.632 8.74398 11.632C8.75718 11.632 8.76798 11.6212 8.76798 11.608C8.76798 11.5948 8.77878 11.584 8.79198 11.584C8.8053 11.584 8.81598 11.5698 8.81598 11.552C8.81598 11.5344 8.82238 11.52 8.83026 11.52C8.8381 11.52 8.84902 11.502 8.85454 11.48C8.86006 11.458 8.87346 11.4399 8.8843 11.4398C8.8951 11.4397 8.91814 11.4101 8.93546 11.374C8.95274 11.3379 8.97614 11.3048 8.98746 11.3004C8.99874 11.2961 9.00798 11.2826 9.00798 11.2703C9.00798 11.258 9.0147 11.248 9.0229 11.248C9.0311 11.248 9.04246 11.2334 9.04814 11.2155C9.05382 11.1976 9.07566 11.1644 9.0967 11.1417C9.11774 11.119 9.13962 11.0857 9.14534 11.0677C9.15106 11.0497 9.17186 11.0199 9.19162 11.0015C9.21138 10.9831 9.23298 10.9507 9.23962 10.9295C9.24626 10.9083 9.2689 10.8751 9.28986 10.8557C9.31142 10.8357 9.32798 10.802 9.32798 10.7782C9.32798 10.7514 9.3367 10.736 9.35198 10.736C9.36518 10.736 9.37598 10.7252 9.37598 10.712C9.37598 10.6988 9.38678 10.688 9.39998 10.688C9.4149 10.688 9.42398 10.6729 9.42398 10.648C9.42398 10.6231 9.43306 10.608 9.44798 10.608C9.46118 10.608 9.47198 10.5972 9.47198 10.584C9.47198 10.5708 9.47878 10.56 9.4871 10.56C9.50202 10.56 9.5415 10.4984 9.56146 10.444C9.5671 10.4286 9.58166 10.416 9.59386 10.416C9.60602 10.416 9.61598 10.4016 9.61598 10.384C9.61598 10.3664 9.62306 10.352 9.63166 10.352C9.6403 10.352 9.6519 10.334 9.65742 10.312C9.66294 10.29 9.67586 10.272 9.68614 10.272C9.69642 10.272 9.71902 10.2397 9.73638 10.2002C9.75378 10.1606 9.77698 10.1282 9.78798 10.1282C9.79898 10.1281 9.80798 10.1172 9.80798 10.104C9.80798 10.0908 9.81518 10.08 9.82398 10.08C9.83278 10.08 9.83998 10.0691 9.83998 10.0558C9.83998 10.0426 9.85438 10.0194 9.87198 10.0043C9.88958 9.98921 9.90398 9.96769 9.90398 9.95645C9.90398 9.94521 9.91118 9.93601 9.91998 9.93601C9.92878 9.93601 9.93598 9.92649 9.93598 9.91489C9.93598 9.90329 9.95758 9.86957 9.98398 9.84001C10.0104 9.81045 10.032 9.76953 10.032 9.74913C10.032 9.72681 10.0415 9.71201 10.056 9.71201C10.0692 9.71201 10.08 9.70121 10.08 9.68801C10.08 9.67481 10.0908 9.66401 10.104 9.66401C10.12 9.66401 10.128 9.64801 10.128 9.61601C10.128 9.58401 10.136 9.56801 10.152 9.56801C10.1652 9.56801 10.176 9.55721 10.176 9.54401C10.176 9.53081 10.1868 9.52001 10.2 9.52001C10.2133 9.52001 10.224 9.50577 10.224 9.48801C10.224 9.47041 10.2304 9.45601 10.2383 9.45601C10.2461 9.45601 10.257 9.43801 10.2625 9.41601C10.2681 9.39401 10.2833 9.37601 10.2963 9.37601C10.3093 9.37601 10.32 9.36609 10.32 9.35397C10.32 9.34185 10.3307 9.32305 10.3438 9.31217C10.3569 9.30129 10.3639 9.28637 10.3593 9.27901C10.3548 9.27165 10.3657 9.25781 10.3835 9.24825C10.4014 9.23869 10.416 9.22033 10.416 9.20745C10.416 9.19457 10.4227 9.18401 10.4309 9.18401C10.4391 9.18401 10.4505 9.16937 10.4561 9.15149C10.4618 9.13361 10.4837 9.10041 10.5047 9.07773C10.5257 9.05501 10.5476 9.02173 10.5533 9.00373C10.5591 8.98573 10.5816 8.95441 10.6035 8.93413C10.6254 8.91385 10.6443 8.87901 10.6456 8.85665C10.6469 8.83433 10.657 8.81601 10.668 8.81601C10.679 8.81601 10.688 8.80521 10.688 8.79201C10.688 8.77881 10.6988 8.76801 10.712 8.76801C10.728 8.76801 10.736 8.75201 10.736 8.72001C10.736 8.68801 10.744 8.67201 10.76 8.67201C10.7732 8.67201 10.784 8.66121 10.784 8.64801C10.784 8.63481 10.7948 8.62401 10.808 8.62401C10.8229 8.62401 10.832 8.60889 10.832 8.58401C10.832 8.55913 10.8411 8.54401 10.856 8.54401C10.8692 8.54401 10.88 8.53397 10.88 8.52173C10.88 8.50945 10.8908 8.49529 10.904 8.49021C10.9172 8.48517 10.928 8.46277 10.928 8.44053C10.928 8.41517 10.937 8.40001 10.952 8.40001C10.9652 8.40001 10.976 8.38921 10.976 8.37601C10.976 8.36281 10.9828 8.35201 10.9911 8.35201C11.006 8.35201 11.0455 8.29045 11.0655 8.23601C11.0711 8.22061 11.0857 8.20801 11.0979 8.20801C11.11 8.20801 11.12 8.19361 11.12 8.17601C11.12 8.15841 11.1271 8.14401 11.1357 8.14401C11.1443 8.14401 11.1559 8.12601 11.1614 8.10401C11.1669 8.08201 11.177 8.06401 11.1838 8.06401C11.1906 8.06401 11.2237 8.02081 11.2573 7.96801C11.2909 7.91521 11.3242 7.87201 11.3312 7.87201C11.3382 7.87201 11.344 7.85401 11.344 7.83201C11.344 7.80713 11.3531 7.79201 11.368 7.79201C11.3812 7.79201 11.392 7.78197 11.392 7.76973C11.392 7.75745 11.4028 7.74329 11.416 7.73821C11.4292 7.73317 11.44 7.71077 11.44 7.68853C11.44 7.66317 11.449 7.64801 11.464 7.64801C11.4772 7.64801 11.488 7.63797 11.488 7.62573C11.488 7.61345 11.4988 7.59929 11.512 7.59421C11.5252 7.58917 11.536 7.56677 11.536 7.54453C11.536 7.51917 11.545 7.50401 11.56 7.50401C11.5732 7.50401 11.584 7.49321 11.584 7.48001C11.584 7.46681 11.5948 7.45601 11.608 7.45601C11.624 7.45601 11.632 7.44001 11.632 7.40801C11.632 7.37601 11.64 7.36001 11.656 7.36001C11.6692 7.36001 11.68 7.34921 11.68 7.33601C11.68 7.32281 11.6891 7.31201 11.7002 7.31201C11.7194 7.31201 11.746 7.27345 11.7691 7.21201C11.7749 7.19661 11.7863 7.18401 11.7943 7.18401C11.8022 7.18401 11.8158 7.16781 11.8243 7.14801C11.8469 7.09589 11.8788 7.04721 11.9363 6.97757C11.9537 6.95641 11.968 6.92941 11.968 6.91757C11.968 6.90569 11.9752 6.89601 11.984 6.89601C11.9928 6.89601 12 6.88597 12 6.87373C12 6.86145 12.0108 6.84729 12.024 6.84221C12.0372 6.83717 12.048 6.81477 12.048 6.79253C12.048 6.76717 12.057 6.75201 12.072 6.75201C12.0852 6.75201 12.096 6.74121 12.096 6.72801C12.096 6.71481 12.1068 6.70401 12.12 6.70401C12.1346 6.70401 12.144 6.68909 12.144 6.66573C12.144 6.64465 12.1548 6.62329 12.168 6.61821C12.1812 6.61317 12.192 6.59797 12.192 6.58453C12.192 6.57105 12.2028 6.56001 12.216 6.56001C12.2309 6.56001 12.24 6.54489 12.24 6.52001C12.24 6.49513 12.2491 6.48001 12.264 6.48001C12.2772 6.48001 12.288 6.46897 12.288 6.45549C12.288 6.44205 12.2988 6.42685 12.312 6.42181C12.3252 6.41673 12.336 6.39537 12.336 6.37429C12.336 6.35093 12.3453 6.33601 12.36 6.33601C12.3732 6.33601 12.384 6.32521 12.384 6.31201C12.384 6.29881 12.3913 6.28801 12.4004 6.28801C12.4094 6.28801 12.4238 6.27181 12.4323 6.25201C12.4483 6.21497 12.4818 6.15817 12.496 6.14401C12.519 6.12097 12.576 6.03125 12.576 6.01801C12.576 6.00957 12.5814 6.00029 12.588 5.99733C12.6151 5.98529 12.6726 5.88601 12.6623 5.86921C12.6553 5.85805 12.6582 5.85549 12.6696 5.86257C12.6804 5.86921 12.6929 5.86181 12.6992 5.84501C12.7053 5.82905 12.7196 5.80649 12.7311 5.79485C12.7426 5.78325 12.752 5.76345 12.752 5.75085C12.752 5.73829 12.7628 5.72801 12.776 5.72801C12.7893 5.72801 12.8 5.71377 12.8 5.69601C12.8 5.67841 12.8071 5.66401 12.8157 5.66401C12.8243 5.66401 12.8359 5.64601 12.8414 5.62401C12.8469 5.60201 12.8615 5.58401 12.8737 5.58401C12.886 5.58401 12.896 5.57629 12.896 5.56685C12.896 5.55745 12.9068 5.53893 12.92 5.52573C12.9332 5.51253 12.944 5.48785 12.944 5.47085C12.944 5.45389 12.9548 5.44001 12.968 5.44001C12.9812 5.44001 12.992 5.42921 12.992 5.41601C12.992 5.40281 12.9985 5.39201 13.0064 5.39201C13.0143 5.39201 13.0284 5.37041 13.0376 5.34401C13.0468 5.31761 13.0619 5.29601 13.0711 5.29601C13.0804 5.29601 13.088 5.28521 13.088 5.27201C13.088 5.25881 13.0951 5.24801 13.1037 5.24801C13.1123 5.24801 13.1237 5.23053 13.1291 5.20917C13.1345 5.18781 13.149 5.16645 13.1614 5.16165C13.1738 5.15689 13.184 5.14197 13.184 5.12853C13.184 5.11505 13.1907 5.10401 13.1989 5.10401C13.2071 5.10401 13.2189 5.08781 13.2251 5.06801C13.2312 5.04821 13.241 5.02841 13.2467 5.02401C13.2767 5.00093 13.3264 4.92233 13.3187 4.91001C13.3139 4.90217 13.3212 4.89145 13.335 4.88617C13.3487 4.88089 13.36 4.86733 13.36 4.85601C13.36 4.84469 13.3708 4.83129 13.384 4.82621C13.3972 4.82117 13.408 4.79877 13.408 4.77653C13.408 4.75117 13.417 4.73601 13.432 4.73601C13.4452 4.73601 13.456 4.72597 13.456 4.71373C13.456 4.70145 13.4668 4.68729 13.48 4.68221C13.4932 4.67717 13.504 4.65917 13.504 4.64221C13.504 4.62529 13.5148 4.60729 13.528 4.60221C13.5412 4.59717 13.552 4.58277 13.552 4.57021C13.552 4.55769 13.5628 4.54329 13.576 4.53821C13.5892 4.53317 13.6 4.51437 13.6 4.49653C13.6 4.47829 13.6105 4.46401 13.624 4.46401C13.6372 4.46401 13.648 4.45037 13.648 4.43373C13.648 4.41705 13.6596 4.39897 13.6738 4.39353C13.6908 4.38701 13.6972 4.37069 13.6925 4.34601C13.687 4.31757 13.6915 4.31001 13.7107 4.31501C13.7283 4.31965 13.7459 4.29945 13.768 4.24901C13.7856 4.20901 13.809 4.17625 13.82 4.17617C13.831 4.17609 13.84 4.16249 13.84 4.14597C13.84 4.12945 13.8508 4.10697 13.864 4.09601C13.8772 4.08505 13.888 4.06693 13.888 4.05577C13.888 4.04457 13.8988 4.03129 13.912 4.02621C13.9252 4.02117 13.936 4.00317 13.936 3.98621C13.936 3.96929 13.9467 3.95133 13.9599 3.94629C13.973 3.94125 13.9841 3.92065 13.9846 3.90057C13.9851 3.88045 13.9893 3.78049 13.994 3.67841C14.0022 3.49869 13.9831 3.31569 13.9541 3.29693C13.9465 3.29201 13.9357 3.27361 13.9302 3.25601C13.9182 3.21821 13.8163 3.10401 13.7945 3.10401C13.7862 3.10401 13.7753 3.09321 13.7702 3.08001C13.7651 3.06681 13.7463 3.05601 13.7285 3.05601C13.7103 3.05601 13.696 3.04545 13.696 3.03201C13.696 3.01881 13.6891 3.00801 13.6808 3.00801C13.6725 3.00801 13.646 2.98985 13.6221 2.96761C13.5981 2.94541 13.5617 2.92305 13.5412 2.91789C13.5207 2.91273 13.504 2.89853 13.504 2.88629C13.504 2.87401 13.4963 2.86401 13.4868 2.86401C13.4774 2.86401 13.4603 2.85501 13.4488 2.84401C13.416 2.81261 13.3601 2.77601 13.3449 2.77601C13.3373 2.77601 13.3127 2.75621 13.2903 2.73201C13.2679 2.70781 13.2381 2.68801 13.2243 2.68801C13.2103 2.68801 13.1948 2.67721 13.1898 2.66401C13.1847 2.65081 13.1703 2.64001 13.1578 2.64001C13.1452 2.64001 13.1308 2.62921 13.1258 2.61601C13.1207 2.60281 13.0993 2.59201 13.0783 2.59201C13.0549 2.59201 13.04 2.58265 13.04 2.56801C13.04 2.55481 13.0299 2.54401 13.0177 2.54401C13.0054 2.54401 12.9913 2.53321 12.9862 2.52001C12.9811 2.50681 12.9587 2.49601 12.9365 2.49601C12.9111 2.49601 12.896 2.48701 12.896 2.47201C12.896 2.45881 12.8852 2.44801 12.872 2.44801C12.8588 2.44801 12.848 2.43721 12.848 2.42401C12.848 2.40801 12.832 2.40001 12.8 2.40001C12.768 2.40001 12.752 2.39201 12.752 2.37601C12.752 2.36281 12.7419 2.35201 12.7297 2.35201C12.7174 2.35201 12.7033 2.34121 12.6982 2.32801C12.6931 2.31481 12.6707 2.30401 12.6485 2.30401C12.6231 2.30401 12.608 2.29501 12.608 2.28001C12.608 2.26277 12.5904 2.25601 12.5457 2.25601C12.5051 2.25601 12.4802 2.24765 12.4742 2.23201C12.4667 2.21245 12.4281 2.20801 12.2662 2.20801C12.1043 2.20801 12.0657 2.21245 12.0582 2.23201Z" fill="#0091FF"/>
</svg>
